<svg width="500" height="500" viewBox="0 0 500 500" fill="none" xmlns="http://www.w3.org/2000/svg">
<g clip-path="url(#clip0_52_558)">
<path fill-rule="evenodd" clip-rule="evenodd" d="M39.5 -0.5C179.5 -0.5 319.5 -0.5 459.5 -0.5C480.5 5.16667 493.833 18.5 499.5 39.5C499.5 179.5 499.5 319.5 499.5 459.5C493.833 480.5 480.5 493.833 459.5 499.5C319.5 499.5 179.5 499.5 39.5 499.5C18.5 493.833 5.16667 480.5 -0.5 459.5C-0.5 319.5 -0.5 179.5 -0.5 39.5C5.16667 18.5 18.5 5.16667 39.5 -0.5ZM62.5 152.5C93.8807 176.279 125.381 199.946 157 223.5C188.154 199.59 219.487 175.924 251 152.5C251.5 217.499 251.667 282.499 251.5 347.5C188.499 347.667 125.499 347.5 62.5 347C62.5272 282.553 62.5272 217.72 62.5 152.5ZM268.5 158.5C302.835 158.333 337.168 158.5 371.5 159C399.045 161.564 417.545 175.731 427 201.5C430.642 218.094 427.142 232.927 416.5 246C440.637 269.144 442.804 294.311 423 321.5C409.758 336.205 393.258 344.705 373.5 347C338.502 347.5 303.502 347.667 268.5 347.5C268.5 284.5 268.5 221.5 268.5 158.5Z" fill="white"/>
</g>
<defs>
<clipPath id="clip0_52_558">
<rect width="500" height="500" fill="white"/>
</clipPath>
</defs>
</svg>
