<svg width="77" height="77" viewBox="0 0 77 77" fill="none" xmlns="http://www.w3.org/2000/svg">
<path d="M17.0714 22.4286C20.0301 22.4286 22.4286 20.0301 22.4286 17.0714C22.4286 14.1128 20.0301 11.7143 17.0714 11.7143C14.1128 11.7143 11.7143 14.1128 11.7143 17.0714C11.7143 20.0301 14.1128 22.4286 17.0714 22.4286Z" stroke="white" stroke-linecap="round" stroke-linejoin="round"/>
<path d="M22.4286 29.5714H11.7143V65.2857H22.4286V29.5714Z" stroke="white" stroke-linecap="round" stroke-linejoin="round"/>
<path d="M51 29.5714C48.9134 29.5277 46.8476 29.9926 44.9809 30.926C43.1141 31.8593 41.5027 33.2331 40.2857 34.9286V29.5714H29.5714V65.2857H40.2857V45.6429C40.2857 39.7143 43.4643 36.7143 47.4286 36.7143C51.3929 36.7143 54.5714 39.7143 54.5714 45.6429V65.2857H65.2857V45.6429C65.2857 35.8929 59.9286 29.5714 51 29.5714Z" stroke="white" stroke-linecap="round" stroke-linejoin="round"/>
<path d="M70.6429 1H6.35714C3.39847 1 1 3.39847 1 6.35714V70.6429C1 73.6015 3.39847 76 6.35714 76H70.6429C73.6015 76 76 73.6015 76 70.6429V6.35714C76 3.39847 73.6015 1 70.6429 1Z" stroke="white" stroke-linecap="round" stroke-linejoin="round"/>
</svg>
