<svg id="SvgjsSvg1027" width="288" height="288" xmlns="http://www.w3.org/2000/svg" version="1.1" xmlns:xlink="http://www.w3.org/1999/xlink" xmlns:svgjs="http://svgjs.com/svgjs"><defs id="SvgjsDefs1028"></defs><g id="SvgjsG1029" transform="matrix(0.9167,0,0,0.9167,11.995199205589302,11.995199364471432)"><svg xmlns="http://www.w3.org/2000/svg" viewBox="0 0 50 50" width="288" height="288"><path d="M5.5 7C3.031 7 1.012 9.016 1 11.484V38.5C1 40.973 3.027 43 5.5 43h39c2.473 0 4.5-2.027 4.5-4.5v-27-.008-.008C48.988 9.016 46.969 7 44.5 7zm2.602 2h33.8L25 20.781zm-3.329.117L25 23.22 45.23 9.117A2.477 2.477 0 0 1 47 11.488c-.004.211-.219.633-.531.973-.317.344-.625.559-.625.559l-.004.007L25 27.777 4.16 13.027l-.004-.007s-.308-.215-.625-.56c-.312-.339-.527-.76-.531-.972a2.476 2.476 0 0 1 1.773-2.37zM3 14.652l.008.008.008.004v.004L6 16.778V41h-.5C4.11 41 3 39.89 3 38.5zm44 0V38.5c0 1.39-1.11 2.5-2.5 2.5H44V16.777l2.984-2.109v-.004l.016-.012zm-39 3.54l17 12.03 17-12.03V41H8z" fill="#ffffff" class="color000 svgShape"></path></svg></g></svg>