<svg id="SvgjsSvg1022" width="288" height="288" xmlns="http://www.w3.org/2000/svg" version="1.1" xmlns:xlink="http://www.w3.org/1999/xlink" xmlns:svgjs="http://svgjs.com/svgjs"><defs id="SvgjsDefs1023"></defs><g id="SvgjsG1024" transform="matrix(0.9167,0,0,0.9167,12.065170741653446,11.9903140563965)"><svg xmlns="http://www.w3.org/2000/svg" viewBox="0 0 24 24" width="288" height="288"><g data-name="&amp;lt;Group&amp;gt;" fill="#000000" class="color000 svgShape"><path fill="none" stroke="#ffffff" stroke-linecap="round" stroke-linejoin="round" d="M2,3.5a13.62,13.62,0,0,0,10,5c-.26-1.06-.28-3.94,1.74-5.14A5.24,5.24,0,0,1,16.5,2.5,4.65,4.65,0,0,1,19.91,4a10.5,10.5,0,0,0,3-1.14,4.57,4.57,0,0,1-2,2.57,8.77,8.77,0,0,0,2.66-.66,9.3,9.3,0,0,1-2.38,2.43c.71,6.37-5,14.29-13.12,14.29a14.76,14.76,0,0,1-7.5-2,9.3,9.3,0,0,0,7-2,5.82,5.82,0,0,1-5-3.5c1,.32,1.95.48,2.5,0A5.41,5.41,0,0,1,1,9a3.51,3.51,0,0,0,2.5,1A5,5,0,0,1,2,3.5Z" data-name="&amp;lt;Path&amp;gt;" class="colorStroke303c42 svgStroke"></path></g></svg></g></svg>