<svg id="SvgjsSvg1063" width="288" height="288" xmlns="http://www.w3.org/2000/svg" version="1.1" xmlns:xlink="http://www.w3.org/1999/xlink" xmlns:svgjs="http://svgjs.com/svgjs"><defs id="SvgjsDefs1064"></defs><g id="SvgjsG1065" transform="matrix(0.9167,0,0,0.9167,12.003159359741204,11.99519551157951)"><svg xmlns="http://www.w3.org/2000/svg" viewBox="0 0 24 24" width="288" height="288"><g data-name="&amp;lt;Group&amp;gt;" fill="#000000" class="color000 svgShape"><path fill="none" stroke="#ffffff" stroke-linecap="round" stroke-linejoin="round" d="M12,.5A11.5,11.5,0,0,0,2.46,18.42L.5,23.5l5.23-1.87A11.5,11.5,0,1,0,12,.5Z" data-name="&amp;lt;Path&amp;gt;" class="colorStroke303c42 svgStroke"></path><path fill="none" stroke="#ffffff" stroke-linecap="round" stroke-linejoin="round" d="M9.5,14.5c1.3,1.3,4.17,3,5.5,3a2.53,2.53,0,0,0,2.5-2v-1s-1.23-.6-2-1-2,1-2,1A6.52,6.52,0,0,1,11,13a6.52,6.52,0,0,1-1.5-2.5s1.4-1.23,1-2-1-2-1-2h-1A2.53,2.53,0,0,0,6.5,9C6.5,10.33,8.2,13.2,9.5,14.5Z" data-name="&amp;lt;Path&amp;gt;" class="colorStroke303c42 svgStroke"></path></g></svg></g></svg>