<svg id="SvgjsSvg1028" width="288" height="288" xmlns="http://www.w3.org/2000/svg" version="1.1" xmlns:xlink="http://www.w3.org/1999/xlink" xmlns:svgjs="http://svgjs.com/svgjs"><defs id="SvgjsDefs1029"></defs><g id="SvgjsG1030" transform="matrix(0.9167,0,0,0.9167,11.995198252296461,12.015190550994873)"><svg xmlns="http://www.w3.org/2000/svg" viewBox="0 0 24 24" width="288" height="288"><g data-name="Youtube 1" fill="#000000" class="color000 svgShape"><g data-name="&amp;lt;Group&amp;gt;" fill="#000000" class="color000 svgShape"><g data-name="&amp;lt;Group&amp;gt;" fill="#000000" class="color000 svgShape"><polygon fill="none" stroke="#ffffff" stroke-linecap="round" stroke-linejoin="round" points="9.5 7.5 9.5 16.5 16.5 12 9.5 7.5" data-name="&amp;lt;Path&amp;gt;" class="colorStroke303c42 svgStroke"></polygon></g><path fill="none" stroke="#ffffff" stroke-linecap="round" stroke-linejoin="round" d="M3.13,4.17,5,3.93a56.22,56.22,0,0,1,7-.43h0a56.22,56.22,0,0,1,7,.43l1.9.24a3,3,0,0,1,2.63,3v9.7a3,3,0,0,1-2.63,3l-1.9.24a56.22,56.22,0,0,1-7,.43h0a56.22,56.22,0,0,1-7-.43l-1.9-.24a3,3,0,0,1-2.63-3V7.15A3,3,0,0,1,3.13,4.17Z" data-name="&amp;lt;Path&amp;gt;" class="colorStroke303c42 svgStroke"></path></g></g></svg></g></svg>